<?xml version="1.0" encoding="UTF-8" standalone="no"?>

<svg
	width="200mm"
	height="75mm"
	viewBox="0 0 1024 384"
	version="1.1"
	id="mcmcu_block_diagram"
	xmlns="http://www.w3.org/2000/svg"
	xmlns:svg="http://www.w3.org/2000/svg">
	
	<style>
		.text {
			font: bold 23px consolas;
			text-anchor: middle;
		}
		
		.small {
			font: bold 13px consolas;
			text-anchor: middle;
		}
	</style>
	
	<defs>
		<g id="alu">
			<path d="M0 0 L70 45 V115 L0 160 V115 L35 92.5 V67.5 L0 45 Z" stroke="black" stroke-width="1.5" fill="#F9FFFE" />
			<text x="80" y="-45" class="text" transform="rotate(90)">ALU</text>
		</g>
		
		<g id="mux2">
			<path d="M0 0 L20 10 V30 L0 40 Z" stroke="black" stroke-width="1.5" fill="#3C44AA" />
		</g>
		
		<g id="mux2_long">
			<path d="M0 0 L20 10 V50 L0 60 Z" stroke="black" stroke-width="1.5" fill="#3C44AA" />
		</g>
		
		<g id="mux2_loong">
			<path d="M0 0 L20 10 V100 L0 110 Z" stroke="black" stroke-width="1.5" fill="#3C44AA" />
		</g>
		
		<g id="rf">
			<polygon points="0,0 50,0 50,160 0,160 " fill="#FED83D" stroke="black" stroke-width="1" />
			<text x="25" y="89" class="text">RF</text>
		</g>
		
		<g id="im">
			<polygon points="0,0 50,0 50,260 0,260 " fill="#80C71F" stroke="black" stroke-width="1" />
			<text x="25" y="137" class="text">IM</text>
		</g>
		
		<g id="cu">
			<polygon points="0,0 50,0 50,160 0,160 " fill="#C74EBD" stroke="black" stroke-width="1" />
			<text x="25" y="89" class="text">CU</text>
		</g>
		
		<g id="sram">
			<polygon points="0,0 120,0 120,160 0,160 " fill="#F9801D" stroke="black" stroke-width="1" />
			<text x="60" y="87" class="text">DM</text>
		</g>
		
		<g id="stack">
			<polygon points="0,0 50,0 50,50 0,50 " fill="#8932B8" stroke="black" stroke-width="1" />
			<text x="25" y="32" class="text">OS</text>
		</g>
		
		<g id="bus">
			<polygon points="0,0 50,0 50,50 0,50 " fill="#169C9C" stroke="black" stroke-width="1" />
			<text x="25" y="32" class="text">B</text>
		</g>
		
		<g id="pc">
			<polygon points="0,0 50,0 50,60 0,60" fill="#835432" stroke="black" stroke-width="1" />
			<text x="25" y="37" class="text">PC</text>
			<polygon points="0,40 5,45 0,50" fill="none" stroke="black" />
		</g>
		
		<g id="cs">
			<polygon points="0,0 50,0 50,70 0,70" fill="#F38BAA" stroke="black" stroke-width="1" />
			<text x="25" y="42" class="text">CS</text>
		</g>
		
		<g id="npc_id">
			<polygon points="0,0 50,0 50,70 0,70" fill="#5E7C16" stroke="black" stroke-width="1" />
			<text x="25" y="42" class="text">ND</text>
		</g>
		
		<g id="npc_ex">
			<polygon points="0,0 50,0 50,70 0,70" fill="#9D9D91" stroke="black" stroke-width="1" />
			<text x="25" y="42" class="text">NE</text>
		</g>
		
		<g id="adder">
			<circle cx="0" cy="0" r="12" stroke="black" stroke-width="1.5" fill="none" />
			<line x1="-12" y1="0" x2="12" y2="0" stroke="black" stroke-width="1.5" />
			<line x1="0" y1="-12" x2="0" y2="12" stroke="black" stroke-width="1.5" />
		</g>
		
		<g id="knot">
			<circle cx="0" cy="0" r="4" stroke="black" stroke-width="1.5" fill="black" />
		</g>
		
		<g id="latch">
			<path d="M-6 -6 h12 v12 h-12 Z" stroke="black" stroke-width="1.5" fill="white" />
			<path d="M-6 6 L0 0 L6 6" stroke="black" stroke-width="1.5" fill="white" />
		</g>
		
		<g id="or_gate">
			<path d="M0 0 
					a13 13 0 0 1 0 13
					h5
					a13 13 0 0 0 13 -6.5
					a13 13 0 0 0 -13 -6.5
					Z"
					stroke="black" stroke-width="1" fill="#474F52" />
		</g>
		
		<marker id="arrow" markerWidth="3" markerHeight="4" refX="2.5" refY="2" orient="auto">
			<path d="M0 0 L2 2 L0 4" stroke="black" stroke-width="1" fill="none" />
		</marker>
	</defs>
	
	<g id="top">
		<!-- Separations -->
		<path d="M237 0 V384" stroke="red" stroke-width="1.5" fill="none" stroke-dasharray="5, 5" />
		<path d="M485 0 V384" stroke="red" stroke-width="1.5" fill="none" stroke-dasharray="5, 5" />
		<path d="M680 0 V384" stroke="red" stroke-width="1.5" fill="none" stroke-dasharray="5, 5" />
		<path d="M910 0 V384" stroke="red" stroke-width="1.5" fill="none" stroke-dasharray="5, 5" />
		
		<text x="118.5" y="370" class="text">IF</text>
		<text x="361" y="370" class="text">ID</text>
		<text x="582.5" y="370" class="text">EX</text>
		<text x="815" y="370" class="text">MEM</text>
		<text x="968" y="370" class="text">WB</text>
		
		<!-- IF -->
		<use href="#adder" transform="translate(50, 48)" />
		<use href="#mux2_long" transform="translate(45, 240) scale(1, 1)" />
		<use href="#pc" transform="translate(55, 160)" />
		<use href="#im" transform="translate(125, 60)" />
		<use href="#mux2" transform="translate(205, 120) rotate(0)" />
		
		<path d="M80 160 V48 H62" stroke="black" stroke-width="3" fill="none" marker-end="url(#arrow)" />
		<path d="M38 48 H20 V250 H45" stroke="black" stroke-width="3" fill="none" marker-end="url(#arrow)" />
		<path d="M65 270 H80 V220" stroke="black" stroke-width="3" fill="none" marker-end="url(#arrow)" />
		<path d="M105 190 H125" stroke="black" stroke-width="3" fill="none" marker-end="url(#arrow)" />
		<path d="M175 130 H205" stroke="black" stroke-width="3" fill="none" marker-end="url(#arrow)" />
		<path d="M190 160 V150 H205" stroke="black" stroke-width="3" fill="none" marker-end="url(#arrow)" />
		<path d="M225 140 H280" stroke="black" stroke-width="3" fill="none" marker-end="url(#arrow)" />
		<path d="M50 18 V36" stroke="black" stroke-width="3" fill="none" marker-end="url(#arrow)" />
		
		<path d="M80 48 H500 V285 H525" stroke="black" stroke-width="3" fill="none" marker-end="url(#arrow)" />
		<path d="M95 48 H255 V300 H280" stroke="black" stroke-width="3" fill="none" marker-end="url(#arrow)" />
		
		<path d="M53 330 V296" stroke="black" stroke-width="1.5" fill="none" marker-end="url(#arrow)" />
		<path d="M57 340 V294" stroke="black" stroke-width="1.5" fill="none" marker-end="url(#arrow)" />
		
		<use href="#or_gate" transform="translate(202, 290) rotate(270) scale(2)" />
		<path d="M210 330 V287" stroke="black" stroke-width="1.5" fill="none" marker-end="url(#arrow)" />
		<path d="M220 340 V287" stroke="black" stroke-width="1.5" fill="none" marker-end="url(#arrow)" />
		<path d="M215 254 V155" stroke="black" stroke-width="1.5" fill="none" marker-end="url(#arrow)" />
		
		<text x="190" y="170" class="small">NOP</text>
		<text x="50" y="16" class="small">1</text>
		
		<use href="#latch" transform="translate(237, 140)" />
		<use href="#latch" transform="translate(237, 48)" />
		
		<!-- ID -->
		<use href="#cu" transform="translate(280, 60)" />
		<use href="#rf" transform="translate(360, 60)" />
		<use href="#mux2" transform="translate(450, 62.5) rotate(0)" />
		<use href="#mux2" transform="translate(450, 185.0) rotate(0)" />
		<use href="#mux2" transform="translate(380, 0) rotate(0)" />
		<path d="M330 140 H360" stroke="black" stroke-width="3" fill="none" marker-end="url(#arrow)" />
		<path d="M410 72.5 H450" stroke="black" stroke-width="3" fill="none" marker-end="url(#arrow)" />
		<path d="M410 195.0 H450" stroke="black" stroke-width="3" fill="none" marker-end="url(#arrow)" />
		<path d="M470 82.5 H585" stroke="black" stroke-width="3" fill="none" marker-end="url(#arrow)" />
		<path d="M470 205.0 H550" stroke="black" stroke-width="3" fill="none" marker-end="url(#arrow)" />
		<path d="M305 60 V10 H380" stroke="black" stroke-width="3" fill="none" marker-end="url(#arrow)" />
		<path d="M365 30 H380" stroke="black" stroke-width="3" fill="none" marker-end="url(#arrow)" />
		<path d="M400 20 H1020" stroke="black" stroke-width="3" fill="none" marker-end="url(#arrow)" />
		
		<use href="#npc_id" transform="translate(280, 250)" />
		<use href="#mux2" transform="translate(380, 280) rotate(0)" />
		<path d="M265 140 V270 H280" stroke="black" stroke-width="3" fill="none" marker-end="url(#arrow)" />
		<path d="M330 290 H380" stroke="black" stroke-width="3" fill="none" marker-end="url(#arrow)" />
		<path d="M365 310 H380" stroke="black" stroke-width="3" fill="none" marker-end="url(#arrow)" />
		<path d="M400 300 H525" stroke="black" stroke-width="3" fill="none" marker-end="url(#arrow)" />
		
		<path d="M420 330 V43 H390 V35" stroke="black" stroke-width="1.5" fill="none" marker-end="url(#arrow)" />
		<path d="M420 330 V323 H390 V315" stroke="black" stroke-width="1.5" fill="none" marker-end="url(#arrow)" />
		
		<text x="360" y="35" class="small">0</text>
		<text x="360" y="315" class="small">0</text>
		
		<use href="#latch" transform="translate(485, 20)" />
		<use href="#latch" transform="translate(485, 48)" />
		<use href="#latch" transform="translate(485, 82.5)" />
		<use href="#latch" transform="translate(485, 205.0)" />
		<use href="#latch" transform="translate(485, 300)" />
		
		<!-- EX -->
		<use href="#npc_ex" transform="translate(525, 250)" />
		<use href="#cs" transform="translate(605, 250)" />
		<path d="M575 270 H605" stroke="black" stroke-width="3" fill="none" marker-end="url(#arrow)" />
		<path d="M605 300 H575" stroke="black" stroke-width="3" fill="none" marker-end="url(#arrow)" />
		<path d="M510 82.5 V270 H525" stroke="black" stroke-width="3" fill="none" marker-end="url(#arrow)" />
		
		<use href="#mux2" transform="translate(550, 177.5) rotate(0)" />
		<use href="#alu" transform="translate(585, 60)" />
		<path d="M560 20 V182.5" stroke="black" stroke-width="1.5" fill="none" marker-end="url(#arrow)" />
		<path d="M620 20 V82.5" stroke="black" stroke-width="2" fill="none" marker-end="url(#arrow)" />
		<path d="M570 197.5 H585" stroke="black" stroke-width="3" fill="none" marker-end="url(#arrow)" />
		<path d="M530 20 V187.5 H550" stroke="black" stroke-width="3" fill="none" marker-end="url(#arrow)" />
		<path d="M655 140 H940" stroke="black" stroke-width="3" fill="none" marker-end="url(#arrow)" />
		<path d="M510 82.5 V48 H790 V60" stroke="black" stroke-width="3" fill="none" marker-end="url(#arrow)" />
		<path d="M510 82.5 V48 H860 V60" stroke="black" stroke-width="3" fill="none" marker-end="url(#arrow)" />
		<path d="M530 205.0 V225 H710" stroke="black" stroke-width="3" fill="none" marker-end="url(#arrow)" />
		
		<use href="#knot" transform="translate(510, 82.5)" />
		
		<use href="#latch" transform="translate(680, 20)" />
		<use href="#latch" transform="translate(680, 48)" />
		<use href="#latch" transform="translate(680, 140)" />
		<use href="#latch" transform="translate(680, 225)" />
		
		<!-- MEM -->
		<use href="#sram" transform="translate(750, 160)" />
		<use href="#stack" transform="translate(750, 60)" />
		<use href="#bus" transform="translate(820, 60)" />
		<path d="M870 85 H940" stroke="black" stroke-width="3" fill="none" marker-end="url(#arrow)" />
		<path d="M775 110 V120 H940" stroke="black" stroke-width="3" fill="none" marker-end="url(#arrow)" />
		<path d="M870 175 H940" stroke="black" stroke-width="3" fill="none" marker-end="url(#arrow)" />
		<path d="M740 20 V85 H750" stroke="black" stroke-width="1.5" fill="none" marker-end="url(#arrow)" />
		<path d="M810 20 V85 H820" stroke="black" stroke-width="1.5" fill="none" marker-end="url(#arrow)" />
		<path d="M740 20 V175 H750" stroke="black" stroke-width="1.5" fill="none" marker-end="url(#arrow)" />
		<path d="M720 140 V190 H750" stroke="black" stroke-width="3" fill="none" marker-end="url(#arrow)" />
		
		<use href="#mux2" transform="translate(710, 215) rotate(0)" />
		<path d="M730 235 H750" stroke="black" stroke-width="3" fill="none" marker-end="url(#arrow)" />
		
		<use href="#latch" transform="translate(910, 20)" />
		<use href="#latch" transform="translate(910, 85)" />
		<use href="#latch" transform="translate(910, 120)" />
		<use href="#latch" transform="translate(910, 140)" />
		<use href="#latch" transform="translate(910, 175)" />
		
		<!-- WB -->
		<use href="#mux2_loong" transform="translate(940, 75) rotate(0)" />
		<path d="M960 130 H980 V330 H345 V190 H360" stroke="black" stroke-width="3" fill="none" marker-end="url(#arrow)" />
		<path d="M950 20 V80" stroke="black" stroke-width="1.5" fill="none" marker-end="url(#arrow)" />
		
		<!-- Bypasses -->
		<path d="M665 140 V35" stroke="black" stroke-width="3" fill="none" marker-end="url(#arrow)" />
		<path d="M885 140 V35" stroke="black" stroke-width="3" fill="none" marker-end="url(#arrow)" />
		<path d="M980 130 V35 H435 V215 H450" stroke="black" stroke-width="3" fill="none" marker-end="url(#arrow)" />
		<path d="M435 92.5 H450" stroke="black" stroke-width="3" fill="none" marker-end="url(#arrow)" />
		
		<path d="M695 330 V245 H710" stroke="black" stroke-width="3" fill="none" marker-end="url(#arrow)" />
		
		<!-- To PC -->
		<path d="M305 320 V330 H30 V290 H45" stroke="black" stroke-width="3" fill="none" marker-end="url(#arrow)" />
		<path d="M535 320 V340 H20 V270 H45" stroke="black" stroke-width="3" fill="none" marker-end="url(#arrow)" />
	</g>
	
</svg>
