<?xml version="1.0" encoding="UTF-8" standalone="no"?>

<svg
	width="192mm"
	height="126mm"
	viewBox="0 0 640 420"
	version="1.1"
	id="mcmcu_sys"
	xmlns="http://www.w3.org/2000/svg"
	xmlns:svg="http://www.w3.org/2000/svg">
	
	<style>
		.text {
			font: bold 23px consolas;
			text-anchor: middle;
		}
		
		.small {
			font: bold 13px consolas;
			text-anchor: middle;
		}
	</style>
	
	<defs>
		<g id="bus">
			<path d="M0 0 L20 20 V15 H595 V20 L615 0 L595 -20 V-15 H20 V-20 Z" stroke="black" stroke-width="3" fill="#FFBFBF" marker-end="url(#arrow)" />
			<text x="307.5" y="7" class="text">Bus</text>
		</g>
		
		<g id="mcu">
			<rect x="0" y="0" width="320" height="80" stroke="black" stroke-width="2" fill="#FFFFBF" />
			<rect x="40" y="8" width="30" height="18" stroke="black" stroke-width="2" fill="white" />
			<text x="55" y="20.5" class="small">CS</text>
			<rect x="40" y="31" width="30" height="18" stroke="black" stroke-width="2" fill="white" />
			<text x="55" y="43.5" class="small">PC</text>
			<rect x="40" y="54" width="30" height="18" stroke="black" stroke-width="2" fill="white" />
			<text x="55" y="66.5" class="small">NPC</text>
			<rect x="80" y="8" width="30" height="64" stroke="black" stroke-width="2" fill="white" />
			<text x="95" y="43.5" class="small">IM</text>
			<rect x="120" y="8" width="30" height="64" stroke="black" stroke-width="2" fill="white" />
			<text x="135" y="43.5" class="small">CU</text>
			<rect x="160" y="8" width="30" height="64" stroke="black" stroke-width="2" fill="white" />
			<text x="175" y="43.5" class="small">RF</text>
			<rect x="200" y="8" width="30" height="64" stroke="black" stroke-width="2" fill="white" />
			<text x="215" y="43.5" class="small">ALU</text>
			<rect x="240" y="8" width="30" height="64" stroke="black" stroke-width="2" fill="white" />
			<path d="M240 32 H270" stroke="black" stroke-width="1" fill="white" stroke-dasharray="2, 2" />
			<text x="255" y="43.5" class="small">DM</text>
			<rect x="280" y="8" width="30" height="64" stroke="black" stroke-width="2" fill="white" />
			<text x="295" y="43.5" class="small">S</text>
			<text x="40" y="-10" class="text" transform="rotate(90)">Core</text>
		</g>
		
		<g id="csr">
			<rect x="0" y="0" height="27" width="27" stroke="black" stroke-width="2" fill="white" />
			<text x="13.5" y="17" class="small">CSR</text>
			<path d="M13.5 0 L8.5 -5 H10 V-45 H8.5 L13.5 -50 L18.5 -45 H17 V-5 H18.5 Z" stroke="black" stroke-width="1.5" fill="white" marker-end="url(#arrow)" />
			<path d="M13.5 27 L8.5 32 H10 V43.5 H8.5 L13.5 48.5 L18.5 43.5 H17 V32 H18.5 Z" stroke="black" stroke-width="1.5" fill="white" marker-end="url(#arrow)" />
		</g>
		
		<g id="perh">
			<rect x="0" y="0" width="120" height="145" stroke="black" stroke-width="2" fill="#BFDFFF" />
			<use href="#csr" transform="translate(10, 10)" />
			<use href="#csr" transform="translate(46.5, 10)" />
			<use href="#csr" transform="translate(83, 10)" />
			<rect x="10" y="58.5" width="100" height="20" stroke="black" stroke-width="2" fill="white" />
			<path d="M60 78.5 L55 83.5 H56.5 V95 H55 L60 100 L65 95 H63.5 V83.5 H65 Z" stroke="black" stroke-width="1.5" fill="white" marker-end="url(#arrow)" />
			<text x="60" y="72.5" class="small">Adapter</text>
			<rect x="10" y="100" width="100" height="35" stroke="black" stroke-width="2" fill="white" />
		</g>
		
		<g id="disp">
			<rect x="0" y="0" width="320" height="40" stroke="black" stroke-width="2" fill="#BFFFFF" />
			<text x="160" y="27" class="text">Display</text>
		</g>
	</defs>
	
	<g id="top">
		<use href="#bus" transform="translate(18, 215)" />
		
		<use href="#mcu" transform="translate(160, 80)" />
		<path d="M415 88 L410 83 H411.5 V55 H410 L415 50 L420 55 H418.5 V83 H420 Z" stroke="black" stroke-width="1.5" fill="white" marker-end="url(#arrow)" />
		<use href="#disp" transform="translate(160, 10)" />
		<path d="M320 160 L312 168 H315 V192 H312 L320 200 L328 192 H325 V168 H328 Z" stroke="black" stroke-width="1.5" fill="white" marker-end="url(#arrow)" />
		
		<use href="#perh" transform="translate(48, 270)" />
		<text x="108" y="394.5" class="text">GPIO</text>
		<use href="#perh" transform="translate(200, 270)" />
		<text x="260" y="394.5" class="text">RSECC</text>
		<use href="#perh" transform="translate(483, 270)" />
		<text x="543" y="394.5" class="text">KBrd</text>
		
		<circle cx="381.5" cy="331.5" r="3" fill="black" />
		<circle cx="401.5" cy="331.5" r="3" fill="black" />
		<circle cx="421.5" cy="331.5" r="3" fill="black" />
		
		
	</g>
	
</svg>
